<svg width="25" height="30" viewBox="0 0 25 30" fill="none" xmlns="http://www.w3.org/2000/svg">
<path d="M5.97656 28.7874C5.39132 28.4026 4.87264 27.9272 4.44044 27.3793C3.96503 26.8139 3.52455 26.2206 3.12139 25.6027C2.17531 24.2329 1.43337 22.7358 0.918328 21.1574C0.299616 19.3239 0 17.5666 0 15.8477C0 13.928 0.420205 12.2522 1.24206 10.8441C1.85129 9.74351 2.74702 8.82377 3.83657 8.18006C4.89247 7.5319 6.10571 7.1772 7.34848 7.15332C7.78353 7.15332 8.25197 7.21565 8.74917 7.33483C9.10629 7.43476 9.54134 7.59243 10.0729 7.78862C10.7491 8.04622 11.121 8.2039 11.2472 8.2424C11.6433 8.38541 11.9763 8.44775 12.2379 8.44775C12.4364 8.44775 12.7165 8.38541 13.0347 8.29007C13.2137 8.22773 13.5514 8.11773 14.0347 7.91329C14.5133 7.74095 14.8899 7.59335 15.1895 7.48334C15.6487 7.3495 16.093 7.22574 16.4891 7.1634C16.9587 7.09024 17.4352 7.07086 17.9093 7.10565C18.7308 7.15871 19.5399 7.33076 20.3108 7.61627C21.5714 8.11773 22.5909 8.90062 23.3497 10.0135C23.0289 10.2089 22.7279 10.4342 22.4508 10.6864C21.8475 11.215 21.3336 11.8355 20.9286 12.5245C20.3992 13.466 20.1248 14.5267 20.1318 15.6038C20.1513 16.9267 20.4945 18.0918 21.1707 19.0993C21.6679 19.846 22.314 20.4846 23.0695 20.9759C23.4563 21.2335 23.7893 21.4104 24.1084 21.5296C23.9591 21.988 23.7995 22.4317 23.6112 22.8717C23.1842 23.8585 22.6666 24.8046 22.0649 25.698C21.5288 26.4672 21.1086 27.0401 20.7895 27.4215C20.2923 28.0036 19.8136 28.4482 19.3303 28.7581C18.7988 29.1065 18.1708 29.2926 17.5327 29.2926C17.1004 29.309 16.6683 29.2573 16.2526 29.1395C15.8954 29.0203 15.542 28.891 15.1942 28.7434C14.8325 28.5793 14.4596 28.4405 14.0783 28.3282C13.1355 28.0889 12.1471 28.0873 11.2036 28.3236C10.8168 28.4336 10.4448 28.5619 10.0775 28.7196C9.56082 28.9341 9.21761 29.0781 9.0191 29.1395C8.62301 29.2541 8.21208 29.3256 7.79652 29.3494C7.15369 29.3494 6.55445 29.1679 5.96079 28.8003L5.97656 28.7874ZM14.4549 6.22191C13.6144 6.63719 12.8121 6.81412 12.0153 6.75637C11.89 5.96339 12.0153 5.15207 12.3483 4.26375C12.6318 3.51117 13.0507 2.81547 13.5848 2.21026C14.1488 1.57314 14.8331 1.05093 15.5995 0.672887C16.4158 0.257604 17.1941 0.0330026 17.938 0C18.0345 0.830566 17.938 1.64738 17.6291 2.5302C17.3433 3.31061 16.9251 4.03725 16.3926 4.67904C15.8491 5.31702 15.1821 5.84127 14.4307 6.22099L14.4549 6.22191Z" fill="white"/>
</svg>
