<svg width="22" height="25" viewBox="0 0 22 25" fill="none" xmlns="http://www.w3.org/2000/svg">
<path d="M1 5.44444L4.33333 1H17.6667L21 5.44444M1 5.44444V21C1 21.5894 1.23413 22.1546 1.65087 22.5713C2.06762 22.9881 2.63285 23.2222 3.22222 23.2222H18.7778C19.3671 23.2222 19.9324 22.9881 20.3491 22.5713C20.7659 22.1546 21 21.5894 21 21V5.44444M1 5.44444H21M15.4444 9.88889C15.4444 11.0676 14.9762 12.1981 14.1427 13.0316C13.3092 13.8651 12.1787 14.3333 11 14.3333C9.82126 14.3333 8.6908 13.8651 7.8573 13.0316C7.02381 12.1981 6.55556 11.0676 6.55556 9.88889" stroke="white" stroke-width="2" stroke-linecap="round" stroke-linejoin="round"/>
</svg>
