<svg width="22" height="24" viewBox="0 0 22 24" fill="none" xmlns="http://www.w3.org/2000/svg">
<path d="M5.44444 10.9V6.5C5.44444 5.04131 6.02976 3.64236 7.07163 2.61091C8.1135 1.57946 9.52658 1 11 1C12.4734 1 13.8865 1.57946 14.9284 2.61091C15.9702 3.64236 16.5556 5.04131 16.5556 6.5V10.9M3.22222 10.9H18.7778C20.0051 10.9 21 11.885 21 13.1V20.8C21 22.015 20.0051 23 18.7778 23H3.22222C1.99492 23 1 22.015 1 20.8V13.1C1 11.885 1.99492 10.9 3.22222 10.9Z" stroke="white" stroke-width="2" stroke-linecap="round" stroke-linejoin="round"/>
</svg>
