<svg width="26" height="22" viewBox="0 0 26 22" fill="none" xmlns="http://www.w3.org/2000/svg">
<path d="M18.4545 21V18.7778C18.4545 17.599 17.9948 16.4686 17.1765 15.6351C16.3581 14.8016 15.2482 14.3333 14.0909 14.3333H5.36364C4.20633 14.3333 3.09642 14.8016 2.27808 15.6351C1.45974 16.4686 1 17.599 1 18.7778V21M25 21V18.7778C24.9993 17.793 24.6775 16.8364 24.0851 16.0581C23.4928 15.2798 22.6634 14.724 21.7273 14.4778M17.3636 1.14444C18.3023 1.38922 19.1342 1.94522 19.7283 2.72479C20.3224 3.50436 20.6449 4.46314 20.6449 5.45C20.6449 6.43686 20.3224 7.39564 19.7283 8.17521C19.1342 8.95478 18.3023 9.51078 17.3636 9.75556M14.0909 5.44444C14.0909 7.89904 12.1372 9.88889 9.72727 9.88889C7.3173 9.88889 5.36364 7.89904 5.36364 5.44444C5.36364 2.98985 7.3173 1 9.72727 1C12.1372 1 14.0909 2.98985 14.0909 5.44444Z" stroke="white" stroke-width="2" stroke-linecap="round" stroke-linejoin="round"/>
</svg>
