<svg width="25" height="23" viewBox="0 0 25 23" fill="none" xmlns="http://www.w3.org/2000/svg">
<path d="M17.1 22V3.33333C17.1 2.71449 16.8577 2.121 16.4263 1.68342C15.995 1.24583 15.41 1 14.8 1H10.2C9.59 1 9.00499 1.24583 8.57365 1.68342C8.14232 2.121 7.9 2.71449 7.9 3.33333V22M3.3 5.66667H21.7C22.9703 5.66667 24 6.71134 24 8V19.6667C24 20.9553 22.9703 22 21.7 22H3.3C2.02974 22 1 20.9553 1 19.6667V8C1 6.71134 2.02974 5.66667 3.3 5.66667Z" stroke="white" stroke-width="2" stroke-linecap="round" stroke-linejoin="round"/>
</svg>
