<svg width="30" height="30" viewBox="0 0 30 30" fill="none" xmlns="http://www.w3.org/2000/svg">
<path d="M11.217 11.1C11.5226 10.2312 12.1259 9.49854 12.9199 9.03187C13.714 8.56521 14.6476 8.39462 15.5553 8.55033C16.4631 8.70603 17.2865 9.17798 17.8796 9.88259C18.4727 10.5872 18.7974 11.479 18.796 12.4C18.796 15 14.896 16.3 14.896 16.3M15 21.5H15.013M28 15C28 22.1797 22.1797 28 15 28C7.8203 28 2 22.1797 2 15C2 7.8203 7.8203 2 15 2C22.1797 2 28 7.8203 28 15Z" stroke="#23292E" stroke-width="2.5" stroke-linecap="round" stroke-linejoin="round"/>
</svg>
