<svg width="23" height="28" viewBox="0 0 23 28" fill="none" xmlns="http://www.w3.org/2000/svg">
<path d="M22 11.6364C22 19.9091 11.5 27 11.5 27C11.5 27 1 19.9091 1 11.6364C1 8.81542 2.10625 6.11002 4.07538 4.11532C6.04451 2.12061 8.71523 1 11.5 1C14.2848 1 16.9555 2.12061 18.9246 4.11532C20.8938 6.11002 22 8.81542 22 11.6364Z" stroke="#23292E" stroke-width="2" stroke-linecap="round" stroke-linejoin="round"/>
<path d="M11.5 15.1818C13.433 15.1818 15 13.5945 15 11.6364C15 9.67826 13.433 8.09091 11.5 8.09091C9.567 8.09091 8 9.67826 8 11.6364C8 13.5945 9.567 15.1818 11.5 15.1818Z" stroke="#23292E" stroke-width="2" stroke-linecap="round" stroke-linejoin="round"/>
</svg>
