<svg width="23" height="22" viewBox="0 0 23 22" fill="none" xmlns="http://www.w3.org/2000/svg">
<path d="M17.498 5.5H17.508M6.99805 1H16.998C19.7595 1 21.998 3.23858 21.998 6V16C21.998 18.7614 19.7595 21 16.998 21H6.99805C4.23662 21 1.99805 18.7614 1.99805 16V6C1.99805 3.23858 4.23662 1 6.99805 1ZM15.998 10.37C16.1215 11.2022 15.9793 12.0522 15.5918 12.799C15.2043 13.5458 14.5912 14.1514 13.8397 14.5297C13.0882 14.9079 12.2365 15.0396 11.4058 14.9059C10.5752 14.7723 9.80781 14.3801 9.21289 13.7852C8.61796 13.1902 8.22578 12.4229 8.09211 11.5922C7.95845 10.7616 8.09011 9.90989 8.46837 9.15837C8.84663 8.40685 9.45223 7.79374 10.199 7.40624C10.9458 7.01874 11.7958 6.87659 12.628 7C13.477 7.12588 14.2629 7.52146 14.8697 8.12831C15.4766 8.73515 15.8722 9.52108 15.998 10.37Z" stroke="white" stroke-width="2" stroke-linecap="round" stroke-linejoin="round"/>
</svg>
