<svg width="27" height="27" viewBox="0 0 27 27" fill="none" xmlns="http://www.w3.org/2000/svg">
<path d="M13.5171 0C6.08331 0 0.031707 6.04581 0.0290067 13.4789C0.0276566 15.8549 0.650046 18.1745 1.83006 20.2184L0 27L7.06446 25.331C9.0343 26.4056 11.2518 26.9696 13.5092 26.971H13.5145C20.947 26.971 26.9959 20.9238 27 13.4921C27.0027 9.88894 25.6014 6.50124 23.0551 3.95244C20.5087 1.40499 17.1247 0.00135 13.5171 0ZM13.5145 2.7C16.3984 2.70135 19.1086 3.82563 21.1459 5.86143C23.1833 7.89993 24.3024 10.6086 24.2997 13.4895C24.297 19.4349 19.4605 24.271 13.5119 24.271C11.7121 24.2696 9.92942 23.8178 8.35921 22.9605L7.44946 22.4648L3.7867 23.3297L4.43539 20.9197L4.7281 19.8387L4.16906 18.8684C3.22667 17.2376 2.72792 15.373 2.72927 13.4789C2.73197 7.53621 7.56987 2.7 13.5145 2.7ZM8.74421 7.25625C8.51874 7.25625 8.15418 7.34063 7.845 7.67812C7.53582 8.01428 6.66364 8.82843 6.66364 10.4862C6.66364 12.144 7.87137 13.7465 8.04014 13.972C8.20756 14.1961 10.3714 17.7056 13.7967 19.0556C16.6427 20.1774 17.2208 19.956 17.8391 19.8993C18.4575 19.844 19.834 19.0859 20.1149 18.2988C20.3957 17.5118 20.3963 16.8348 20.3126 16.6957C20.2289 16.5553 20.0041 16.4716 19.6666 16.3028C19.3304 16.1341 17.6737 15.3206 17.3645 15.2086C17.0553 15.0965 16.8292 15.0398 16.605 15.3773C16.3809 15.7148 15.7368 16.4716 15.5397 16.6957C15.3426 16.9212 15.1468 16.9515 14.8093 16.7827C14.4717 16.6126 13.3865 16.2559 12.0984 15.1084C11.0966 14.216 10.4207 13.115 10.2236 12.7775C10.0278 12.4414 10.2051 12.2568 10.3739 12.0894C10.5251 11.9382 10.7088 11.6958 10.8775 11.4987C11.0449 11.3016 11.103 11.1612 11.2151 10.9371C11.3271 10.713 11.2698 10.5152 11.1861 10.3465C11.1023 10.1777 10.4468 8.51377 10.1471 7.84688C9.89461 7.28662 9.62796 7.27361 9.38763 7.26416C9.19186 7.25606 8.96833 7.25625 8.74421 7.25625Z" fill="#23292E"/>
</svg>
