<svg width="357" height="42" viewBox="0 0 357 42" fill="none" xmlns="http://www.w3.org/2000/svg">
<path d="M20.2332 2.81375L14.0684 0L-0.000365131 30.8239L6.16443 33.6377L20.2332 2.81375Z" fill="#3D5BF6"/>
<path d="M24.9294 10.8235L18.7646 8.00977L4.69593 38.8337L10.8607 41.6474L24.9294 10.8235Z" fill="#708EFF"/>
<path d="M35.39 29.596H36.742L42.514 12.852H45.478L51.25 29.596H52.602V31H45.816V29.596H48.052L46.596 25.254H40.018L38.562 29.596H40.798V31H35.39V29.596ZM40.434 23.772H46.18L43.372 15.296H43.242L40.434 23.772ZM54.146 29.596H55.914V19.56L54.146 19.222V18.078L58.748 17.168V19.586H58.878C58.982 19.2913 59.138 18.9967 59.346 18.702C59.5713 18.4073 59.84 18.1473 60.152 17.922C60.4813 17.6967 60.854 17.5147 61.27 17.376C61.7033 17.2373 62.1886 17.168 62.726 17.168C64.3726 17.168 65.5426 17.5927 66.236 18.442C66.9293 19.274 67.276 20.5307 67.276 22.212V29.596H69.044V31H62.648V29.596H64.364V22.368C64.364 21.2413 64.1473 20.418 63.714 19.898C63.2806 19.378 62.596 19.118 61.66 19.118C61.3133 19.118 60.9666 19.17 60.62 19.274C60.2906 19.3607 59.9873 19.508 59.71 19.716C59.45 19.9067 59.2333 20.1493 59.06 20.444C58.904 20.7387 58.826 21.094 58.826 21.51V29.596H60.542V31H54.146V29.596ZM76.5433 31.312C75.7113 31.312 74.9573 31.156 74.2813 30.844C73.6053 30.5147 73.0333 30.0467 72.5653 29.44C72.0973 28.8333 71.7333 28.0967 71.4733 27.23C71.2133 26.346 71.0833 25.3493 71.0833 24.24C71.0833 23.1307 71.2133 22.1427 71.4733 21.276C71.7333 20.392 72.0973 19.6467 72.5653 19.04C73.0333 18.4333 73.6053 17.974 74.2813 17.662C74.9573 17.3327 75.7113 17.168 76.5433 17.168C77.566 17.168 78.3807 17.402 78.9873 17.87C79.6113 18.338 80.062 18.884 80.3393 19.508H80.4693V13.632L78.7013 13.294V12.15L83.3813 11.24V28.92L85.1493 29.258V30.402L80.4693 31.312V28.972H80.3393C80.062 29.596 79.6113 30.142 78.9873 30.61C78.3633 31.078 77.5487 31.312 76.5433 31.312ZM77.4533 29.44C77.8347 29.44 78.2073 29.388 78.5713 29.284C78.9353 29.1627 79.256 28.9893 79.5333 28.764C79.828 28.5387 80.0533 28.27 80.2093 27.958C80.3827 27.646 80.4693 27.2907 80.4693 26.892V21.588C80.4693 21.1893 80.3827 20.834 80.2093 20.522C80.0533 20.21 79.828 19.9413 79.5333 19.716C79.256 19.4907 78.9353 19.326 78.5713 19.222C78.2073 19.1007 77.8347 19.04 77.4533 19.04C76.4653 19.04 75.6767 19.378 75.0873 20.054C74.498 20.73 74.2033 21.666 74.2033 22.862V25.618C74.2033 26.814 74.498 27.75 75.0873 28.426C75.6767 29.102 76.4653 29.44 77.4533 29.44ZM87.103 29.596H88.871V19.56L87.103 19.222V18.078L91.705 17.168V19.586H91.835C91.9563 19.274 92.1037 18.9793 92.277 18.702C92.4677 18.4073 92.693 18.1473 92.953 17.922C93.2303 17.6967 93.5423 17.5147 93.889 17.376C94.253 17.2373 94.6603 17.168 95.111 17.168C95.9083 17.168 96.541 17.3673 97.009 17.766C97.4943 18.1647 97.737 18.7367 97.737 19.482C97.737 20.0713 97.581 20.5393 97.269 20.886C96.9743 21.2153 96.567 21.38 96.047 21.38C95.5097 21.38 95.085 21.2413 94.773 20.964C94.4783 20.6693 94.331 20.3053 94.331 19.872C94.331 19.5773 94.3917 19.3347 94.513 19.144C94.6343 18.936 94.7817 18.8147 94.955 18.78V18.702C94.903 18.6847 94.8423 18.676 94.773 18.676C94.7037 18.6587 94.5997 18.65 94.461 18.65C94.1317 18.65 93.8023 18.7367 93.473 18.91C93.161 19.0833 92.875 19.3087 92.615 19.586C92.3723 19.846 92.173 20.1493 92.017 20.496C91.861 20.8253 91.783 21.1547 91.783 21.484V29.596H94.071V31H87.103V29.596ZM105.43 31.312C104.424 31.312 103.532 31.1473 102.752 30.818C101.972 30.4713 101.313 29.986 100.776 29.362C100.238 28.738 99.8222 27.9927 99.5275 27.126C99.2502 26.2593 99.1115 25.2973 99.1115 24.24C99.1115 23.1653 99.2589 22.1947 99.5535 21.328C99.8655 20.4613 100.29 19.7247 100.828 19.118C101.382 18.494 102.032 18.0173 102.778 17.688C103.54 17.3413 104.372 17.168 105.274 17.168C106.192 17.168 107.016 17.324 107.744 17.636C108.472 17.9307 109.087 18.3553 109.59 18.91C110.11 19.4647 110.508 20.132 110.786 20.912C111.063 21.692 111.202 22.5587 111.202 23.512V24.214H102.258V25.046C102.258 26.398 102.596 27.4467 103.272 28.192C103.948 28.92 104.858 29.284 106.002 29.284C107.007 29.284 107.813 29.0673 108.42 28.634C109.044 28.1833 109.503 27.6287 109.798 26.97L110.916 27.646C110.76 28.0967 110.526 28.5387 110.214 28.972C109.919 29.4053 109.546 29.7953 109.096 30.142C108.645 30.4887 108.116 30.7747 107.51 31C106.903 31.208 106.21 31.312 105.43 31.312ZM102.258 22.836H108.186V22.55C108.186 21.302 107.943 20.34 107.458 19.664C106.99 18.9707 106.262 18.624 105.274 18.624C104.303 18.624 103.558 18.962 103.038 19.638C102.518 20.2967 102.258 21.25 102.258 22.498V22.836ZM104.234 15.374L106.158 10.408L108.758 11.656L105.17 15.816L104.234 15.374ZM126.211 31.312C125.137 31.312 124.261 31.13 123.585 30.766C122.927 30.402 122.476 29.9687 122.233 29.466H122.103V31H119.737V25.67H122.103V26.84C122.103 27.7413 122.398 28.4433 122.987 28.946C123.594 29.4487 124.556 29.7 125.873 29.7C127.26 29.7 128.265 29.414 128.889 28.842C129.513 28.27 129.825 27.5073 129.825 26.554C129.825 25.7047 129.591 25.0547 129.123 24.604C128.655 24.136 127.867 23.7633 126.757 23.486L125.431 23.174C124.582 22.9833 123.819 22.732 123.143 22.42C122.467 22.108 121.895 21.7267 121.427 21.276C120.959 20.8253 120.595 20.2967 120.335 19.69C120.093 19.0833 119.971 18.3727 119.971 17.558C119.971 16.8127 120.11 16.1367 120.387 15.53C120.665 14.906 121.055 14.3773 121.557 13.944C122.077 13.4933 122.701 13.1467 123.429 12.904C124.157 12.6613 124.981 12.54 125.899 12.54C126.939 12.54 127.771 12.7133 128.395 13.06C129.019 13.4067 129.453 13.814 129.695 14.282H129.825V12.852H132.191V18.026H129.825V16.856C129.825 15.972 129.522 15.3047 128.915 14.854C128.326 14.386 127.39 14.152 126.107 14.152C124.911 14.152 124.019 14.4207 123.429 14.958C122.857 15.478 122.571 16.1453 122.571 16.96C122.571 17.8267 122.831 18.494 123.351 18.962C123.889 19.43 124.764 19.8113 125.977 20.106L127.199 20.366C128.881 20.7647 130.181 21.3973 131.099 22.264C132.018 23.1133 132.477 24.2833 132.477 25.774C132.477 26.5713 132.33 27.308 132.035 27.984C131.758 28.66 131.351 29.2493 130.813 29.752C130.293 30.2373 129.643 30.6187 128.863 30.896C128.083 31.1733 127.199 31.312 126.211 31.312ZM139.145 31.312C137.793 31.312 136.771 30.9827 136.077 30.324C135.401 29.648 135.063 28.7293 135.063 27.568C135.063 26.2507 135.531 25.254 136.467 24.578C137.403 23.902 138.929 23.564 141.043 23.564H142.915V21.796C142.915 20.7387 142.681 19.9327 142.213 19.378C141.745 18.8233 141.009 18.546 140.003 18.546C139.154 18.546 138.513 18.6673 138.079 18.91V19.014C138.27 19.1007 138.443 19.2567 138.599 19.482C138.773 19.69 138.859 19.9847 138.859 20.366C138.859 20.8513 138.712 21.2413 138.417 21.536C138.14 21.8307 137.733 21.978 137.195 21.978C136.745 21.978 136.363 21.8307 136.051 21.536C135.757 21.224 135.609 20.808 135.609 20.288C135.609 19.8893 135.722 19.508 135.947 19.144C136.19 18.7627 136.537 18.4247 136.987 18.13C137.438 17.8353 137.984 17.6013 138.625 17.428C139.284 17.2547 140.038 17.168 140.887 17.168C142.517 17.168 143.747 17.5493 144.579 18.312C145.411 19.0747 145.827 20.1407 145.827 21.51V29.622H147.595V30.792C147.353 30.9307 147.041 31.052 146.659 31.156C146.278 31.26 145.871 31.312 145.437 31.312C144.64 31.312 144.051 31.1127 143.669 30.714C143.305 30.298 143.123 29.7693 143.123 29.128V28.998H142.993C142.872 29.2927 142.716 29.5787 142.525 29.856C142.335 30.116 142.083 30.3587 141.771 30.584C141.477 30.8093 141.113 30.9827 140.679 31.104C140.246 31.2427 139.735 31.312 139.145 31.312ZM140.289 29.492C141.052 29.492 141.676 29.31 142.161 28.946C142.664 28.582 142.915 27.984 142.915 27.152V24.838H141.355C140.125 24.838 139.267 25.0373 138.781 25.436C138.296 25.8347 138.053 26.4067 138.053 27.152V27.646C138.053 28.27 138.253 28.738 138.651 29.05C139.05 29.3447 139.596 29.492 140.289 29.492ZM149.539 29.596H151.307V19.56L149.539 19.222V18.078L154.141 17.168V19.586H154.271C154.375 19.2913 154.531 18.9967 154.739 18.702C154.964 18.4073 155.233 18.1473 155.545 17.922C155.874 17.6967 156.247 17.5147 156.663 17.376C157.096 17.2373 157.581 17.168 158.119 17.168C159.765 17.168 160.935 17.5927 161.629 18.442C162.322 19.274 162.669 20.5307 162.669 22.212V29.596H164.437V31H158.041V29.596H159.757V22.368C159.757 21.2413 159.54 20.418 159.107 19.898C158.673 19.378 157.989 19.118 157.053 19.118C156.706 19.118 156.359 19.17 156.013 19.274C155.683 19.3607 155.38 19.508 155.103 19.716C154.843 19.9067 154.626 20.1493 154.453 20.444C154.297 20.7387 154.219 21.094 154.219 21.51V29.596H155.935V31H149.539V29.596ZM172.69 31.312C171.667 31.312 170.757 31.1387 169.96 30.792C169.18 30.4453 168.521 29.96 167.984 29.336C167.447 28.712 167.039 27.9667 166.762 27.1C166.485 26.2333 166.346 25.28 166.346 24.24C166.346 23.1307 166.511 22.1427 166.84 21.276C167.169 20.392 167.629 19.6467 168.218 19.04C168.807 18.4333 169.501 17.974 170.298 17.662C171.113 17.3327 171.997 17.168 172.95 17.168C174.441 17.168 175.602 17.48 176.434 18.104C177.283 18.728 177.708 19.5253 177.708 20.496C177.708 21.1027 177.543 21.5793 177.214 21.926C176.885 22.2553 176.443 22.42 175.888 22.42C175.316 22.42 174.883 22.264 174.588 21.952C174.293 21.6227 174.146 21.2153 174.146 20.73C174.146 20.3313 174.25 19.9847 174.458 19.69C174.666 19.3953 174.935 19.1787 175.264 19.04V18.91C175.056 18.8233 174.796 18.7453 174.484 18.676C174.172 18.5893 173.782 18.546 173.314 18.546C172.742 18.546 172.222 18.65 171.754 18.858C171.286 19.066 170.887 19.3607 170.558 19.742C170.229 20.106 169.969 20.548 169.778 21.068C169.605 21.588 169.518 22.1687 169.518 22.81V25.072C169.518 26.372 169.839 27.4033 170.48 28.166C171.121 28.9113 171.997 29.284 173.106 29.284C174.146 29.284 174.952 29.0587 175.524 28.608C176.113 28.1573 176.564 27.6027 176.876 26.944L177.994 27.62C177.838 28.0707 177.613 28.5127 177.318 28.946C177.023 29.3793 176.659 29.778 176.226 30.142C175.793 30.4887 175.281 30.7747 174.692 31C174.103 31.208 173.435 31.312 172.69 31.312ZM179.695 29.596H181.463V13.632L179.695 13.294V12.15L184.375 11.24V19.586H184.505C184.609 19.2913 184.765 18.9967 184.973 18.702C185.198 18.4073 185.467 18.1473 185.779 17.922C186.091 17.6967 186.455 17.5147 186.871 17.376C187.287 17.2373 187.755 17.168 188.275 17.168C189.921 17.168 191.091 17.5927 191.785 18.442C192.478 19.274 192.825 20.5307 192.825 22.212V29.596H194.593V31H188.197V29.596H189.913V22.368C189.913 21.2413 189.696 20.418 189.263 19.898C188.829 19.378 188.145 19.118 187.209 19.118C186.862 19.118 186.515 19.17 186.169 19.274C185.839 19.3607 185.536 19.508 185.259 19.716C184.999 19.9067 184.782 20.1493 184.609 20.444C184.453 20.7387 184.375 21.094 184.375 21.51V29.596H186.091V31H179.695V29.596ZM202.803 31.312C201.797 31.312 200.905 31.1473 200.125 30.818C199.345 30.4713 198.686 29.986 198.149 29.362C197.611 28.738 197.195 27.9927 196.901 27.126C196.623 26.2593 196.485 25.2973 196.485 24.24C196.485 23.1653 196.632 22.1947 196.927 21.328C197.239 20.4613 197.663 19.7247 198.201 19.118C198.755 18.494 199.405 18.0173 200.151 17.688C200.913 17.3413 201.745 17.168 202.647 17.168C203.565 17.168 204.389 17.324 205.117 17.636C205.845 17.9307 206.46 18.3553 206.963 18.91C207.483 19.4647 207.881 20.132 208.159 20.912C208.436 21.692 208.575 22.5587 208.575 23.512V24.214H199.631V25.046C199.631 26.398 199.969 27.4467 200.645 28.192C201.321 28.92 202.231 29.284 203.375 29.284C204.38 29.284 205.186 29.0673 205.793 28.634C206.417 28.1833 206.876 27.6287 207.171 26.97L208.289 27.646C208.133 28.0967 207.899 28.5387 207.587 28.972C207.292 29.4053 206.919 29.7953 206.469 30.142C206.018 30.4887 205.489 30.7747 204.883 31C204.276 31.208 203.583 31.312 202.803 31.312ZM199.631 22.836H205.559V22.55C205.559 21.302 205.316 20.34 204.831 19.664C204.363 18.9707 203.635 18.624 202.647 18.624C201.676 18.624 200.931 18.962 200.411 19.638C199.891 20.2967 199.631 21.25 199.631 22.498V22.836ZM210.602 29.752L217.96 18.988H212.786V21.51H210.81V17.48H221.496V18.728L214.138 29.492H219.728V26.944H221.704V31H210.602V29.752ZM229.222 29.596H230.574L236.346 12.852H239.31L245.082 29.596H246.434V31H239.648V29.596H241.884L240.428 25.254H233.85L232.394 29.596H234.63V31H229.222V29.596ZM234.266 23.772H240.012L237.204 15.296H237.074L234.266 23.772ZM253.287 31.312C252.455 31.312 251.701 31.156 251.025 30.844C250.349 30.5147 249.777 30.0467 249.309 29.44C248.841 28.8333 248.477 28.0967 248.217 27.23C247.957 26.346 247.827 25.3493 247.827 24.24C247.827 23.1307 247.957 22.1427 248.217 21.276C248.477 20.392 248.841 19.6467 249.309 19.04C249.777 18.4333 250.349 17.974 251.025 17.662C251.701 17.3327 252.455 17.168 253.287 17.168C254.31 17.168 255.125 17.402 255.731 17.87C256.355 18.338 256.806 18.884 257.083 19.508H257.213V13.632L255.445 13.294V12.15L260.125 11.24V28.92L261.893 29.258V30.402L257.213 31.312V28.972H257.083C256.806 29.596 256.355 30.142 255.731 30.61C255.107 31.078 254.293 31.312 253.287 31.312ZM254.197 29.44C254.579 29.44 254.951 29.388 255.315 29.284C255.679 29.1627 256 28.9893 256.277 28.764C256.572 28.5387 256.797 28.27 256.953 27.958C257.127 27.646 257.213 27.2907 257.213 26.892V21.588C257.213 21.1893 257.127 20.834 256.953 20.522C256.797 20.21 256.572 19.9413 256.277 19.716C256 19.4907 255.679 19.326 255.315 19.222C254.951 19.1007 254.579 19.04 254.197 19.04C253.209 19.04 252.421 19.378 251.831 20.054C251.242 20.73 250.947 21.666 250.947 22.862V25.618C250.947 26.814 251.242 27.75 251.831 28.426C252.421 29.102 253.209 29.44 254.197 29.44ZM264.133 18.884H262.833V17.48H268.995V18.884H267.279L270.477 28.166H270.607L273.805 18.884H272.089V17.48H276.847V18.884H275.547L270.971 31H268.709L264.133 18.884ZM284.104 29.778C285.196 29.778 285.993 29.44 286.496 28.764C287.016 28.088 287.276 27.1867 287.276 26.06V22.42C287.276 21.2933 287.016 20.392 286.496 19.716C285.993 19.04 285.196 18.702 284.104 18.702C283.012 18.702 282.206 19.04 281.686 19.716C281.183 20.392 280.932 21.2933 280.932 22.42V26.06C280.932 27.1867 281.183 28.088 281.686 28.764C282.206 29.44 283.012 29.778 284.104 29.778ZM284.104 31.312C283.151 31.312 282.284 31.1473 281.504 30.818C280.724 30.4887 280.057 30.0207 279.502 29.414C278.947 28.8073 278.514 28.0707 278.202 27.204C277.907 26.32 277.76 25.332 277.76 24.24C277.76 23.148 277.907 22.1687 278.202 21.302C278.514 20.418 278.947 19.6727 279.502 19.066C280.057 18.4593 280.724 17.9913 281.504 17.662C282.284 17.3327 283.151 17.168 284.104 17.168C285.057 17.168 285.924 17.3327 286.704 17.662C287.484 17.9913 288.151 18.4593 288.706 19.066C289.261 19.6727 289.685 20.418 289.98 21.302C290.292 22.1687 290.448 23.148 290.448 24.24C290.448 25.332 290.292 26.32 289.98 27.204C289.685 28.0707 289.261 28.8073 288.706 29.414C288.151 30.0207 287.484 30.4887 286.704 30.818C285.924 31.1473 285.057 31.312 284.104 31.312ZM299.237 31.312C298.214 31.312 297.304 31.1387 296.507 30.792C295.727 30.4453 295.068 29.96 294.531 29.336C293.993 28.712 293.586 27.9667 293.309 27.1C293.031 26.2333 292.893 25.28 292.893 24.24C292.893 23.1307 293.057 22.1427 293.387 21.276C293.716 20.392 294.175 19.6467 294.765 19.04C295.354 18.4333 296.047 17.974 296.845 17.662C297.659 17.3327 298.543 17.168 299.497 17.168C300.987 17.168 302.149 17.48 302.981 18.104C303.83 18.728 304.255 19.5253 304.255 20.496C304.255 21.1027 304.09 21.5793 303.761 21.926C303.431 22.2553 302.989 22.42 302.435 22.42C301.863 22.42 301.429 22.264 301.135 21.952C300.84 21.6227 300.693 21.2153 300.693 20.73C300.693 20.3313 300.797 19.9847 301.005 19.69C301.213 19.3953 301.481 19.1787 301.811 19.04V18.91C301.603 18.8233 301.343 18.7453 301.031 18.676C300.719 18.5893 300.329 18.546 299.861 18.546C299.289 18.546 298.769 18.65 298.301 18.858C297.833 19.066 297.434 19.3607 297.105 19.742C296.775 20.106 296.515 20.548 296.325 21.068C296.151 21.588 296.065 22.1687 296.065 22.81V25.072C296.065 26.372 296.385 27.4033 297.027 28.166C297.668 28.9113 298.543 29.284 299.653 29.284C300.693 29.284 301.499 29.0587 302.071 28.608C302.66 28.1573 303.111 27.6027 303.423 26.944L304.541 27.62C304.385 28.0707 304.159 28.5127 303.865 28.946C303.57 29.3793 303.206 29.778 302.773 30.142C302.339 30.4887 301.828 30.7747 301.239 31C300.649 31.208 299.982 31.312 299.237 31.312ZM310.481 31.312C309.129 31.312 308.107 30.9827 307.413 30.324C306.737 29.648 306.399 28.7293 306.399 27.568C306.399 26.2507 306.867 25.254 307.803 24.578C308.739 23.902 310.265 23.564 312.379 23.564H314.251V21.796C314.251 20.7387 314.017 19.9327 313.549 19.378C313.081 18.8233 312.345 18.546 311.339 18.546C310.49 18.546 309.849 18.6673 309.415 18.91V19.014C309.606 19.1007 309.779 19.2567 309.935 19.482C310.109 19.69 310.195 19.9847 310.195 20.366C310.195 20.8513 310.048 21.2413 309.753 21.536C309.476 21.8307 309.069 21.978 308.531 21.978C308.081 21.978 307.699 21.8307 307.387 21.536C307.093 21.224 306.945 20.808 306.945 20.288C306.945 19.8893 307.058 19.508 307.283 19.144C307.526 18.7627 307.873 18.4247 308.323 18.13C308.774 17.8353 309.32 17.6013 309.961 17.428C310.62 17.2547 311.374 17.168 312.223 17.168C313.853 17.168 315.083 17.5493 315.915 18.312C316.747 19.0747 317.163 20.1407 317.163 21.51V29.622H318.931V30.792C318.689 30.9307 318.377 31.052 317.995 31.156C317.614 31.26 317.207 31.312 316.773 31.312C315.976 31.312 315.387 31.1127 315.005 30.714C314.641 30.298 314.459 29.7693 314.459 29.128V28.998H314.329C314.208 29.2927 314.052 29.5787 313.861 29.856C313.671 30.116 313.419 30.3587 313.107 30.584C312.813 30.8093 312.449 30.9827 312.015 31.104C311.582 31.2427 311.071 31.312 310.481 31.312ZM311.625 29.492C312.388 29.492 313.012 29.31 313.497 28.946C314 28.582 314.251 27.984 314.251 27.152V24.838H312.691C311.461 24.838 310.603 25.0373 310.117 25.436C309.632 25.8347 309.389 26.4067 309.389 27.152V27.646C309.389 28.27 309.589 28.738 309.987 29.05C310.386 29.3447 310.932 29.492 311.625 29.492ZM327.166 31.312C326.144 31.312 325.234 31.1387 324.436 30.792C323.656 30.4453 322.998 29.96 322.46 29.336C321.923 28.712 321.516 27.9667 321.238 27.1C320.961 26.2333 320.822 25.28 320.822 24.24C320.822 23.1307 320.987 22.1427 321.316 21.276C321.646 20.392 322.105 19.6467 322.694 19.04C323.284 18.4333 323.977 17.974 324.774 17.662C325.589 17.3327 326.473 17.168 327.426 17.168C328.917 17.168 330.078 17.48 330.91 18.104C331.76 18.728 332.184 19.5253 332.184 20.496C332.184 21.1027 332.02 21.5793 331.69 21.926C331.361 22.2553 330.919 22.42 330.364 22.42C329.792 22.42 329.359 22.264 329.064 21.952C328.77 21.6227 328.622 21.2153 328.622 20.73C328.622 20.3313 328.726 19.9847 328.934 19.69C329.142 19.3953 329.411 19.1787 329.74 19.04V18.91C329.532 18.8233 329.272 18.7453 328.96 18.676C328.648 18.5893 328.258 18.546 327.79 18.546C327.218 18.546 326.698 18.65 326.23 18.858C325.762 19.066 325.364 19.3607 325.034 19.742C324.705 20.106 324.445 20.548 324.254 21.068C324.081 21.588 323.994 22.1687 323.994 22.81V25.072C323.994 26.372 324.315 27.4033 324.956 28.166C325.598 28.9113 326.473 29.284 327.582 29.284C328.622 29.284 329.428 29.0587 330 28.608C330.59 28.1573 331.04 27.6027 331.352 26.944L332.47 27.62C332.314 28.0707 332.089 28.5127 331.794 28.946C331.5 29.3793 331.136 29.778 330.702 30.142C330.269 30.4887 329.758 30.7747 329.168 31C328.579 31.208 327.912 31.312 327.166 31.312ZM337.733 14.958C337.179 14.958 336.745 14.802 336.433 14.49C336.121 14.1607 335.965 13.7447 335.965 13.242V13.086C335.965 12.5833 336.121 12.176 336.433 11.864C336.745 11.5347 337.179 11.37 337.733 11.37C338.288 11.37 338.721 11.5347 339.033 11.864C339.345 12.176 339.501 12.5833 339.501 13.086V13.242C339.501 13.7447 339.345 14.1607 339.033 14.49C338.721 14.802 338.288 14.958 337.733 14.958ZM334.509 29.596H336.277V19.56L334.509 19.222V18.078L339.189 17.168V29.596H340.957V31H334.509V29.596ZM346.892 31.312C345.54 31.312 344.517 30.9827 343.824 30.324C343.148 29.648 342.81 28.7293 342.81 27.568C342.81 26.2507 343.278 25.254 344.214 24.578C345.15 23.902 346.675 23.564 348.79 23.564H350.662V21.796C350.662 20.7387 350.428 19.9327 349.96 19.378C349.492 18.8233 348.755 18.546 347.75 18.546C346.9 18.546 346.259 18.6673 345.826 18.91V19.014C346.016 19.1007 346.19 19.2567 346.346 19.482C346.519 19.69 346.606 19.9847 346.606 20.366C346.606 20.8513 346.458 21.2413 346.164 21.536C345.886 21.8307 345.479 21.978 344.942 21.978C344.491 21.978 344.11 21.8307 343.798 21.536C343.503 21.224 343.356 20.808 343.356 20.288C343.356 19.8893 343.468 19.508 343.694 19.144C343.936 18.7627 344.283 18.4247 344.734 18.13C345.184 17.8353 345.73 17.6013 346.372 17.428C347.03 17.2547 347.784 17.168 348.634 17.168C350.263 17.168 351.494 17.5493 352.326 18.312C353.158 19.0747 353.574 20.1407 353.574 21.51V29.622H355.342V30.792C355.099 30.9307 354.787 31.052 354.406 31.156C354.024 31.26 353.617 31.312 353.184 31.312C352.386 31.312 351.797 31.1127 351.416 30.714C351.052 30.298 350.87 29.7693 350.87 29.128V28.998H350.74C350.618 29.2927 350.462 29.5787 350.272 29.856C350.081 30.116 349.83 30.3587 349.518 30.584C349.223 30.8093 348.859 30.9827 348.426 31.104C347.992 31.2427 347.481 31.312 346.892 31.312ZM348.036 29.492C348.798 29.492 349.422 29.31 349.908 28.946C350.41 28.582 350.662 27.984 350.662 27.152V24.838H349.102C347.871 24.838 347.013 25.0373 346.528 25.436C346.042 25.8347 345.8 26.4067 345.8 27.152V27.646C345.8 28.27 345.999 28.738 346.398 29.05C346.796 29.3447 347.342 29.492 348.036 29.492Z" fill="white"/>
</svg>
