<svg width="380" height="43" viewBox="0 0 380 43" fill="none" xmlns="http://www.w3.org/2000/svg">
<rect x="14.0687" width="6.77657" height="33.8828" transform="rotate(24.533 14.0687 0)" fill="#3D5BF6"/>
<rect x="18.7642" y="8.00928" width="6.77657" height="33.8828" transform="rotate(24.533 18.7642 8.00928)" fill="#708EFF"/>
<path d="M42.433 30.28C41.2383 30.28 40.193 30.168 39.297 29.944C38.4197 29.7013 37.5423 29.356 36.665 28.908L36.385 24.232H36.889L38.597 27.452C39.7543 28.404 40.9677 28.88 42.237 28.88C43.2823 28.88 44.1223 28.628 44.757 28.124C45.3917 27.6013 45.709 26.864 45.709 25.912C45.709 25.2027 45.541 24.6333 45.205 24.204C44.8877 23.756 44.393 23.3547 43.721 23C43.049 22.6267 42.1717 22.1973 41.089 21.712C39.7823 21.0773 38.7743 20.396 38.065 19.668C37.3557 18.9213 37.001 17.9227 37.001 16.672C37.001 15.9627 37.1783 15.2813 37.533 14.628C37.8877 13.9747 38.3543 13.396 38.933 12.892C39.5303 12.388 40.193 11.9867 40.921 11.688C41.6677 11.3893 42.433 11.24 43.217 11.24C44.1503 11.24 45.0184 11.352 45.821 11.576C46.6424 11.7813 47.4264 12.08 48.173 12.472L48.453 16.952H47.977L46.269 13.872C45.7277 13.4613 45.2237 13.1533 44.757 12.948C44.2903 12.7427 43.7583 12.64 43.161 12.64C42.377 12.64 41.7237 12.9013 41.201 13.424C40.697 13.9467 40.445 14.6093 40.445 15.412C40.445 16.252 40.725 16.9333 41.285 17.456C41.845 17.96 42.7783 18.52 44.085 19.136C45.2237 19.6587 46.157 20.172 46.885 20.676C47.613 21.18 48.1543 21.7493 48.509 22.384C48.8637 23.0187 49.041 23.8027 49.041 24.736C49.041 25.632 48.845 26.4253 48.453 27.116C48.0797 27.788 47.5664 28.3667 46.913 28.852C46.2784 29.3187 45.569 29.6733 44.785 29.916C44.001 30.1587 43.217 30.28 42.433 30.28ZM55.0997 30.28C54.2037 30.28 53.4384 30.0093 52.8037 29.468C52.1877 28.9267 51.8891 28.1613 51.9077 27.172C51.9264 26.2013 52.2531 25.408 52.8877 24.792C53.5224 24.1573 54.6984 23.6347 56.4157 23.224L59.0477 22.58V20.732C59.0477 20.0413 58.8144 19.4813 58.3477 19.052C57.8811 18.604 57.3211 18.38 56.6677 18.38C56.0144 18.38 55.5571 18.5387 55.2957 18.856C55.0344 19.1547 54.9037 19.5933 54.9037 20.172V21.264L54.7637 21.376H53.0837C52.8037 21.376 52.6077 21.32 52.4957 21.208C52.3837 21.096 52.3277 20.872 52.3277 20.536C52.3277 19.6587 52.8877 18.884 54.0077 18.212C54.6051 17.8387 55.1931 17.5493 55.7717 17.344C56.3691 17.12 56.9944 17.008 57.6477 17.008C58.4691 17.008 59.2344 17.12 59.9437 17.344C60.6531 17.568 61.2224 17.9227 61.6517 18.408C62.0811 18.8933 62.2957 19.5467 62.2957 20.368V28.012C62.5571 28.3107 63.0331 28.46 63.7237 28.46H64.6477L64.7317 28.544V28.824C64.5077 29.1973 64.1624 29.5333 63.6957 29.832C63.2291 30.1307 62.6317 30.28 61.9037 30.28C61.1944 30.28 60.6157 30.1213 60.1677 29.804C59.7384 29.468 59.4304 29.02 59.2437 28.46H59.0477C58.5624 28.9827 57.9837 29.4213 57.3117 29.776C56.6397 30.112 55.9024 30.28 55.0997 30.28ZM54.9877 26.472C54.9877 27.0693 55.1557 27.5173 55.4917 27.816C55.8464 28.096 56.3317 28.236 56.9477 28.236C57.3024 28.236 57.6384 28.1987 57.9557 28.124C58.2917 28.0493 58.6557 27.928 59.0477 27.76V23.644C57.8904 23.868 57.0224 24.12 56.4437 24.4C55.8651 24.6613 55.4731 24.96 55.2677 25.296C55.0811 25.632 54.9877 26.024 54.9877 26.472ZM65.9891 30V29.552L67.8091 28.656V20.2L66.0731 18.94V18.66L70.4971 17.008H70.7771L71.0291 19.08H71.1691C71.8598 18.408 72.5224 17.8947 73.1571 17.54C73.8104 17.1853 74.5478 17.008 75.3691 17.008C76.4891 17.008 77.4038 17.2973 78.1131 17.876C78.8411 18.4547 79.2051 19.2947 79.2051 20.396V28.656L81.0251 29.552V30H74.3051V29.552L75.9571 28.656V21.6C75.9571 20.8907 75.7424 20.3493 75.3131 19.976C74.8838 19.584 74.3238 19.388 73.6331 19.388C73.2038 19.388 72.7464 19.4627 72.2611 19.612C71.7758 19.7613 71.3744 19.9667 71.0571 20.228V28.656L72.7091 29.552V30H65.9891ZM88.9642 30.28C87.7695 30.28 86.7242 30.028 85.8282 29.524C84.9322 29.02 84.2322 28.32 83.7282 27.424C83.2429 26.5093 83.0002 25.4453 83.0002 24.232C83.0002 22.8133 83.2895 21.5627 83.8682 20.48C84.4469 19.3973 85.2402 18.548 86.2482 17.932C87.2749 17.316 88.4509 17.008 89.7762 17.008C90.5975 17.008 91.3629 17.1387 92.0722 17.4C92.8002 17.6427 93.3415 17.9693 93.6962 18.38C93.9949 18.7347 94.1442 19.0147 94.1442 19.22C94.1442 19.4813 94.0229 19.7053 93.7802 19.892L92.5762 20.928H92.3802L91.4002 19.612C91.0829 19.1827 90.7469 18.8467 90.3922 18.604C90.0375 18.3613 89.5802 18.24 89.0202 18.24C88.0869 18.24 87.3682 18.66 86.8642 19.5C86.3789 20.34 86.1362 21.4787 86.1362 22.916C86.1362 23.756 86.2762 24.54 86.5562 25.268C86.8549 25.9773 87.3215 26.556 87.9562 27.004C88.6095 27.4333 89.4682 27.648 90.5322 27.648C91.0549 27.648 91.6149 27.5733 92.2122 27.424C92.8095 27.2747 93.4442 27.0227 94.1162 26.668H94.2002V27.06C93.7522 27.956 93.0709 28.7213 92.1562 29.356C91.2602 29.972 90.1962 30.28 88.9642 30.28ZM96.2586 30V29.552L98.0786 28.656V12.192L96.3426 10.82V10.54L101.047 9H101.327V19.08H101.439C102.129 18.408 102.792 17.8947 103.427 17.54C104.08 17.1853 104.817 17.008 105.639 17.008C106.759 17.008 107.673 17.2973 108.383 17.876C109.111 18.4547 109.475 19.2947 109.475 20.396V28.656L111.295 29.552V30H104.575V29.552L106.227 28.712V21.6C106.227 20.8907 106.012 20.3493 105.583 19.976C105.153 19.584 104.593 19.388 103.903 19.388C103.473 19.388 103.016 19.4627 102.531 19.612C102.045 19.7613 101.644 19.9667 101.327 20.228V28.712L102.979 29.552V30H96.2586ZM119.346 30.28C117.479 30.28 115.995 29.7293 114.894 28.628C113.811 27.5267 113.27 26.0613 113.27 24.232C113.27 22.8133 113.568 21.5627 114.166 20.48C114.763 19.3973 115.547 18.548 116.518 17.932C117.507 17.316 118.599 17.008 119.794 17.008C121.287 17.008 122.454 17.5213 123.294 18.548C124.134 19.5747 124.563 21.0213 124.582 22.888L124.47 23.028H116.406C116.406 23.868 116.555 24.6427 116.854 25.352C117.152 26.0427 117.638 26.6027 118.31 27.032C118.982 27.4427 119.868 27.648 120.97 27.648C121.492 27.648 122.052 27.5733 122.65 27.424C123.247 27.2747 123.872 27.0227 124.526 26.668H124.61V27.06C124.162 27.9747 123.48 28.74 122.566 29.356C121.651 29.972 120.578 30.28 119.346 30.28ZM119.234 18.268C118.487 18.268 117.871 18.576 117.386 19.192C116.9 19.808 116.592 20.6667 116.462 21.768H121.866C121.698 20.48 121.39 19.5747 120.942 19.052C120.494 18.5293 119.924 18.268 119.234 18.268ZM127.5 30V29.468L133.632 18.576H129.376L127.948 21.544H127.472L127.78 17.008H127.92C128.162 17.0827 128.461 17.148 128.816 17.204C129.189 17.26 129.525 17.288 129.824 17.288H137.664V17.848L131.532 28.712H136.208L137.412 25.576H137.888V30H127.5ZM146.18 30.28C144.481 30.28 143.109 29.86 142.064 29.02C141.018 28.1613 140.496 26.9947 140.496 25.52C140.496 24.5493 140.804 23.6253 141.42 22.748C142.054 21.852 143.044 21.0307 144.388 20.284C143.809 19.668 143.352 19.1267 143.016 18.66C142.698 18.1933 142.465 17.7453 142.316 17.316C142.166 16.868 142.092 16.364 142.092 15.804C142.092 15.0013 142.334 14.2547 142.82 13.564C143.305 12.8547 143.968 12.2947 144.808 11.884C145.648 11.4547 146.6 11.24 147.664 11.24C149.232 11.24 150.464 11.5853 151.36 12.276C152.274 12.9667 152.732 13.8627 152.732 14.964C152.732 15.7853 152.358 16.532 151.612 17.204C150.884 17.876 149.726 18.576 148.14 19.304C148.289 19.472 148.448 19.64 148.616 19.808C148.784 19.9573 148.952 20.1253 149.12 20.312L153.404 24.596C154.356 23.1773 155.224 21.3387 156.008 19.08L153.264 17.988V17.54H160.068V17.988L157.66 19.024C157.1 20.256 156.53 21.4133 155.952 22.496C155.392 23.56 154.804 24.5213 154.188 25.38L157.324 28.544L159.648 29.552V30H154.048L152.004 27.956C151.182 28.7027 150.296 29.2813 149.344 29.692C148.392 30.084 147.337 30.28 146.18 30.28ZM145.312 14.88C145.312 15.5147 145.48 16.1027 145.816 16.644C146.17 17.1853 146.702 17.8293 147.412 18.576C148.065 18.0347 148.578 17.4747 148.952 16.896C149.325 16.2987 149.512 15.6267 149.512 14.88C149.512 14.208 149.325 13.648 148.952 13.2C148.578 12.7333 148.065 12.5 147.412 12.5C146.758 12.5 146.245 12.724 145.872 13.172C145.498 13.6013 145.312 14.1707 145.312 14.88ZM143.772 24.568C143.772 25.7627 144.117 26.696 144.808 27.368C145.517 28.0213 146.432 28.348 147.552 28.348C148.84 28.348 150.034 27.928 151.136 27.088L146.796 22.72C146.497 22.4213 146.208 22.132 145.928 21.852C145.648 21.572 145.396 21.32 145.172 21.096C144.593 21.6373 144.21 22.1787 144.024 22.72C143.856 23.2427 143.772 23.8587 143.772 24.568ZM161.645 30V29.552L163.969 28.404V13.144L161.673 11.968V11.52H166.489L177.297 24.288V13.06L174.273 11.968V11.52H181.553V11.968L179.257 13.088V30.14H177.801L165.929 16.196V28.432L168.981 29.552V30H161.645ZM189.101 30.28C188 30.28 187.085 30 186.357 29.44C185.648 28.8613 185.293 28.012 185.293 26.892V18.632L183.473 17.736V17.288H188.541V25.688C188.541 26.416 188.756 26.9667 189.185 27.34C189.615 27.7133 190.175 27.9 190.865 27.9C191.276 27.9 191.715 27.8253 192.181 27.676C192.667 27.5267 193.068 27.3213 193.385 27.06V18.632L191.565 17.736V17.288H196.633V28.712L198.481 29.552V30H193.385V28.236H193.273C192.583 28.908 191.92 29.4213 191.285 29.776C190.651 30.112 189.923 30.28 189.101 30.28ZM200.165 30V29.552L201.985 28.656V20.2L200.249 18.94V18.66L204.673 17.008H204.953L205.205 19.08H205.345C206.036 18.408 206.698 17.8947 207.333 17.54C207.986 17.1853 208.724 17.008 209.545 17.008C210.665 17.008 211.58 17.2973 212.289 17.876C213.017 18.4547 213.381 19.2947 213.381 20.396V28.656L215.201 29.552V30H208.481V29.552L210.133 28.656V21.6C210.133 20.8907 209.918 20.3493 209.489 19.976C209.06 19.584 208.5 19.388 207.809 19.388C207.38 19.388 206.922 19.4627 206.437 19.612C205.952 19.7613 205.55 19.9667 205.233 20.228V28.656L206.885 29.552V30H200.165ZM223.252 30.28C221.385 30.28 219.901 29.7293 218.8 28.628C217.717 27.5267 217.176 26.0613 217.176 24.232C217.176 22.8133 217.475 21.5627 218.072 20.48C218.669 19.3973 219.453 18.548 220.424 17.932C221.413 17.316 222.505 17.008 223.7 17.008C225.193 17.008 226.36 17.5213 227.2 18.548C228.04 19.5747 228.469 21.0213 228.488 22.888L228.376 23.028H220.312C220.312 23.868 220.461 24.6427 220.76 25.352C221.059 26.0427 221.544 26.6027 222.216 27.032C222.888 27.4427 223.775 27.648 224.876 27.648C225.399 27.648 225.959 27.5733 226.556 27.424C227.153 27.2747 227.779 27.0227 228.432 26.668H228.516V27.06C228.068 27.9747 227.387 28.74 226.472 29.356C225.557 29.972 224.484 30.28 223.252 30.28ZM223.14 18.268C222.393 18.268 221.777 18.576 221.292 19.192C220.807 19.808 220.499 20.6667 220.368 21.768H225.772C225.604 20.48 225.296 19.5747 224.848 19.052C224.4 18.5293 223.831 18.268 223.14 18.268ZM235.634 30.28C234.719 30.28 233.935 30.196 233.282 30.028C232.629 29.86 231.975 29.6173 231.322 29.3V26.08H231.714L232.666 27.592C233.319 28.6187 234.271 29.132 235.522 29.132C236.25 29.132 236.81 28.9827 237.202 28.684C237.594 28.3667 237.79 27.9373 237.79 27.396C237.79 26.9293 237.678 26.5653 237.454 26.304C237.23 26.024 236.875 25.772 236.39 25.548C235.923 25.324 235.326 25.0533 234.598 24.736C233.59 24.3067 232.834 23.8213 232.33 23.28C231.826 22.72 231.574 22.0013 231.574 21.124C231.574 20.3587 231.77 19.668 232.162 19.052C232.573 18.4173 233.114 17.9227 233.786 17.568C234.477 17.1947 235.223 17.008 236.026 17.008C236.679 17.008 237.305 17.0827 237.902 17.232C238.499 17.3813 239.097 17.6053 239.694 17.904V21.124H239.274L238.378 19.752C237.725 18.7253 236.941 18.212 236.026 18.212C235.447 18.212 234.971 18.3613 234.598 18.66C234.243 18.94 234.066 19.3507 234.066 19.892C234.066 20.4333 234.262 20.8627 234.654 21.18C235.065 21.4973 235.793 21.8707 236.838 22.3C237.361 22.5427 237.883 22.7947 238.406 23.056C238.929 23.3173 239.358 23.6907 239.694 24.176C240.049 24.6613 240.226 25.3427 240.226 26.22C240.226 27.0787 239.993 27.816 239.526 28.432C239.078 29.0293 238.499 29.4867 237.79 29.804C237.081 30.1213 236.362 30.28 235.634 30.28ZM249.594 30V29.552L251.33 28.6L258.582 11.38H260.542L267.71 28.544L269.614 29.552V30H261.55V29.552L263.986 28.572L261.998 23.7H255.278L253.318 28.572L255.642 29.552V30H249.594ZM255.922 22.16H261.354L258.638 15.468L255.922 22.16ZM275.554 30.28C274.658 30.28 273.846 30.0467 273.118 29.58C272.408 29.1133 271.839 28.4507 271.41 27.592C270.98 26.7333 270.766 25.7253 270.766 24.568C270.766 23 271.055 21.656 271.634 20.536C272.231 19.3973 273.034 18.5293 274.042 17.932C275.05 17.316 276.179 17.008 277.43 17.008C278.344 17.008 279.128 17.092 279.782 17.26V12.192L277.906 10.792V10.54L282.75 9H283.002V28.74L284.99 29.552V30H280.062L279.838 28.6H279.642C278.932 29.1973 278.26 29.6267 277.626 29.888C276.991 30.1493 276.3 30.28 275.554 30.28ZM274.014 23.784C274.014 25.2773 274.368 26.3787 275.078 27.088C275.787 27.7787 276.608 28.124 277.542 28.124C278.288 28.124 279.035 27.9 279.782 27.452V19.472C279.446 19.1547 279.091 18.912 278.718 18.744C278.363 18.5573 277.962 18.464 277.514 18.464C276.879 18.464 276.3 18.632 275.778 18.968C275.255 19.2853 274.826 19.836 274.49 20.62C274.172 21.3853 274.014 22.44 274.014 23.784ZM291.969 30L286.733 18.548L284.941 17.736V17.288H292.333V17.736L290.261 18.576V18.688L293.453 25.576H293.565L296.393 18.828V18.688L294.517 17.736V17.288H300.005V17.736L297.989 18.716L292.837 30H291.969ZM306.768 30.28C305.498 30.28 304.369 29.9813 303.38 29.384C302.409 28.7867 301.653 27.9933 301.112 27.004C300.57 25.996 300.3 24.876 300.3 23.644C300.3 22.412 300.57 21.3013 301.112 20.312C301.653 19.304 302.409 18.5013 303.38 17.904C304.369 17.3067 305.498 17.008 306.768 17.008C308.056 17.008 309.185 17.3067 310.156 17.904C311.126 18.5013 311.882 19.304 312.424 20.312C312.965 21.3013 313.236 22.412 313.236 23.644C313.236 24.876 312.965 25.996 312.424 27.004C311.882 27.9933 311.126 28.7867 310.156 29.384C309.185 29.9813 308.056 30.28 306.768 30.28ZM307.104 28.964C307.738 28.964 308.252 28.74 308.644 28.292C309.054 27.844 309.353 27.256 309.54 26.528C309.726 25.8 309.82 25.0253 309.82 24.204C309.82 23.196 309.698 22.244 309.456 21.348C309.232 20.4333 308.877 19.696 308.392 19.136C307.906 18.576 307.272 18.296 306.488 18.296C305.853 18.296 305.33 18.52 304.92 18.968C304.509 19.416 304.201 20.004 303.996 20.732C303.809 21.46 303.716 22.2347 303.716 23.056C303.716 24.064 303.828 25.016 304.052 25.912C304.294 26.808 304.668 27.5453 305.172 28.124C305.676 28.684 306.32 28.964 307.104 28.964ZM321.824 30.28C320.629 30.28 319.584 30.028 318.688 29.524C317.792 29.02 317.092 28.32 316.588 27.424C316.102 26.5093 315.86 25.4453 315.86 24.232C315.86 22.8133 316.149 21.5627 316.728 20.48C317.306 19.3973 318.1 18.548 319.108 17.932C320.134 17.316 321.31 17.008 322.636 17.008C323.457 17.008 324.222 17.1387 324.932 17.4C325.66 17.6427 326.201 17.9693 326.556 18.38C326.854 18.7347 327.004 19.0147 327.004 19.22C327.004 19.4813 326.882 19.7053 326.64 19.892L325.436 20.928H325.24L324.26 19.612C323.942 19.1827 323.606 18.8467 323.252 18.604C322.897 18.3613 322.44 18.24 321.88 18.24C320.946 18.24 320.228 18.66 319.724 19.5C319.238 20.34 318.996 21.4787 318.996 22.916C318.996 23.756 319.136 24.54 319.416 25.268C319.714 25.9773 320.181 26.556 320.816 27.004C321.469 27.4333 322.328 27.648 323.392 27.648C323.914 27.648 324.474 27.5733 325.072 27.424C325.669 27.2747 326.304 27.0227 326.976 26.668H327.06V27.06C326.612 27.956 325.93 28.7213 325.016 29.356C324.12 29.972 323.056 30.28 321.824 30.28ZM332.447 30.28C331.551 30.28 330.786 30.0093 330.151 29.468C329.535 28.9267 329.237 28.1613 329.255 27.172C329.274 26.2013 329.601 25.408 330.235 24.792C330.87 24.1573 332.046 23.6347 333.763 23.224L336.395 22.58V20.732C336.395 20.0413 336.162 19.4813 335.695 19.052C335.229 18.604 334.669 18.38 334.015 18.38C333.362 18.38 332.905 18.5387 332.643 18.856C332.382 19.1547 332.251 19.5933 332.251 20.172V21.264L332.111 21.376H330.431C330.151 21.376 329.955 21.32 329.843 21.208C329.731 21.096 329.675 20.872 329.675 20.536C329.675 19.6587 330.235 18.884 331.355 18.212C331.953 17.8387 332.541 17.5493 333.119 17.344C333.717 17.12 334.342 17.008 334.995 17.008C335.817 17.008 336.582 17.12 337.291 17.344C338.001 17.568 338.57 17.9227 338.999 18.408C339.429 18.8933 339.643 19.5467 339.643 20.368V28.012C339.905 28.3107 340.381 28.46 341.071 28.46H341.995L342.079 28.544V28.824C341.855 29.1973 341.51 29.5333 341.043 29.832C340.577 30.1307 339.979 30.28 339.251 30.28C338.542 30.28 337.963 30.1213 337.515 29.804C337.086 29.468 336.778 29.02 336.591 28.46H336.395C335.91 28.9827 335.331 29.4213 334.659 29.776C333.987 30.112 333.25 30.28 332.447 30.28ZM332.335 26.472C332.335 27.0693 332.503 27.5173 332.839 27.816C333.194 28.096 333.679 28.236 334.295 28.236C334.65 28.236 334.986 28.1987 335.303 28.124C335.639 28.0493 336.003 27.928 336.395 27.76V23.644C335.238 23.868 334.37 24.12 333.791 24.4C333.213 24.6613 332.821 24.96 332.615 25.296C332.429 25.632 332.335 26.024 332.335 26.472ZM349.441 30.28C348.246 30.28 347.201 30.028 346.305 29.524C345.409 29.02 344.709 28.32 344.205 27.424C343.719 26.5093 343.477 25.4453 343.477 24.232C343.477 22.8133 343.766 21.5627 344.345 20.48C344.923 19.3973 345.717 18.548 346.725 17.932C347.751 17.316 348.927 17.008 350.253 17.008C351.074 17.008 351.839 17.1387 352.549 17.4C353.277 17.6427 353.818 17.9693 354.173 18.38C354.471 18.7347 354.621 19.0147 354.621 19.22C354.621 19.4813 354.499 19.7053 354.257 19.892L353.053 20.928H352.857L351.877 19.612C351.559 19.1827 351.223 18.8467 350.869 18.604C350.514 18.3613 350.057 18.24 349.497 18.24C348.563 18.24 347.845 18.66 347.341 19.5C346.855 20.34 346.613 21.4787 346.613 22.916C346.613 23.756 346.753 24.54 347.033 25.268C347.331 25.9773 347.798 26.556 348.433 27.004C349.086 27.4333 349.945 27.648 351.009 27.648C351.531 27.648 352.091 27.5733 352.689 27.424C353.286 27.2747 353.921 27.0227 354.593 26.668H354.677V27.06C354.229 27.956 353.547 28.7213 352.633 29.356C351.737 29.972 350.673 30.28 349.441 30.28ZM360.317 14.012C359.775 14.012 359.327 13.8347 358.973 13.48C358.618 13.1067 358.441 12.6493 358.441 12.108C358.441 11.5667 358.618 11.1187 358.973 10.764C359.327 10.4093 359.775 10.232 360.317 10.232C360.858 10.232 361.306 10.4093 361.661 10.764C362.034 11.1187 362.221 11.5667 362.221 12.108C362.221 12.6493 362.034 13.1067 361.661 13.48C361.306 13.8347 360.858 14.012 360.317 14.012ZM356.957 30V29.552L358.777 28.656V20.2L357.041 18.856V18.548L361.745 17.008H362.025V28.656L363.733 29.552V30H356.957ZM369.17 30.28C368.274 30.28 367.509 30.0093 366.874 29.468C366.258 28.9267 365.959 28.1613 365.978 27.172C365.997 26.2013 366.323 25.408 366.958 24.792C367.593 24.1573 368.769 23.6347 370.486 23.224L373.118 22.58V20.732C373.118 20.0413 372.885 19.4813 372.418 19.052C371.951 18.604 371.391 18.38 370.738 18.38C370.085 18.38 369.627 18.5387 369.366 18.856C369.105 19.1547 368.974 19.5933 368.974 20.172V21.264L368.834 21.376H367.154C366.874 21.376 366.678 21.32 366.566 21.208C366.454 21.096 366.398 20.872 366.398 20.536C366.398 19.6587 366.958 18.884 368.078 18.212C368.675 17.8387 369.263 17.5493 369.842 17.344C370.439 17.12 371.065 17.008 371.718 17.008C372.539 17.008 373.305 17.12 374.014 17.344C374.723 17.568 375.293 17.9227 375.722 18.408C376.151 18.8933 376.366 19.5467 376.366 20.368V28.012C376.627 28.3107 377.103 28.46 377.794 28.46H378.718L378.802 28.544V28.824C378.578 29.1973 378.233 29.5333 377.766 29.832C377.299 30.1307 376.702 30.28 375.974 30.28C375.265 30.28 374.686 30.1213 374.238 29.804C373.809 29.468 373.501 29.02 373.314 28.46H373.118C372.633 28.9827 372.054 29.4213 371.382 29.776C370.71 30.112 369.973 30.28 369.17 30.28ZM369.058 26.472C369.058 27.0693 369.226 27.5173 369.562 27.816C369.917 28.096 370.402 28.236 371.018 28.236C371.373 28.236 371.709 28.1987 372.026 28.124C372.362 28.0493 372.726 27.928 373.118 27.76V23.644C371.961 23.868 371.093 24.12 370.514 24.4C369.935 24.6613 369.543 24.96 369.338 25.296C369.151 25.632 369.058 26.024 369.058 26.472Z" fill="white"/>
</svg>
