<svg width="198" height="42" viewBox="0 0 198 42" fill="none" xmlns="http://www.w3.org/2000/svg">
<rect x="14.0687" width="6.77657" height="33.8828" transform="rotate(24.533 14.0687 0)" fill="#3D5BF6"/>
<rect x="18.7643" y="8.00928" width="6.77657" height="33.8828" transform="rotate(24.533 18.7643 8.00928)" fill="#708EFF"/>
<path d="M40.8251 27.22C39.8864 27.22 39.0651 27.132 38.3611 26.956C37.6717 26.7653 36.9824 26.494 36.2931 26.142L36.0731 22.468H36.4691L37.8111 24.998C38.7204 25.746 39.6737 26.12 40.6711 26.12C41.4924 26.12 42.1524 25.922 42.6511 25.526C43.1497 25.1153 43.3991 24.536 43.3991 23.788C43.3991 23.2307 43.2671 22.7833 43.0031 22.446C42.7537 22.094 42.3651 21.7787 41.8371 21.5C41.3091 21.2067 40.6197 20.8693 39.7691 20.488C38.7424 19.9893 37.9504 19.454 37.3931 18.882C36.8357 18.2953 36.5571 17.5107 36.5571 16.528C36.5571 15.9707 36.6964 15.4353 36.9751 14.922C37.2537 14.4087 37.6204 13.954 38.0751 13.558C38.5444 13.162 39.0651 12.8467 39.6371 12.612C40.2237 12.3773 40.8251 12.26 41.4411 12.26C42.1744 12.26 42.8564 12.348 43.4871 12.524C44.1324 12.6853 44.7484 12.92 45.3351 13.228L45.5551 16.748H45.1811L43.8391 14.328C43.4137 14.0053 43.0177 13.7633 42.6511 13.602C42.2844 13.4407 41.8664 13.36 41.3971 13.36C40.7811 13.36 40.2677 13.5653 39.8571 13.976C39.4611 14.3867 39.2631 14.9073 39.2631 15.538C39.2631 16.198 39.4831 16.7333 39.9231 17.144C40.3631 17.54 41.0964 17.98 42.1231 18.464C43.0177 18.8747 43.7511 19.278 44.3231 19.674C44.8951 20.07 45.3204 20.5173 45.5991 21.016C45.8777 21.5147 46.0171 22.1307 46.0171 22.864C46.0171 23.568 45.8631 24.1913 45.5551 24.734C45.2617 25.262 44.8584 25.7167 44.3451 26.098C43.8464 26.4647 43.2891 26.7433 42.6731 26.934C42.0571 27.1247 41.4411 27.22 40.8251 27.22ZM50.7775 27.22C50.0735 27.22 49.4722 27.0073 48.9735 26.582C48.4895 26.1567 48.2548 25.5553 48.2695 24.778C48.2842 24.0153 48.5408 23.392 49.0395 22.908C49.5382 22.4093 50.4622 21.9987 51.8115 21.676L53.8795 21.17V19.718C53.8795 19.1753 53.6962 18.7353 53.3295 18.398C52.9628 18.046 52.5228 17.87 52.0095 17.87C51.4962 17.87 51.1368 17.9947 50.9315 18.244C50.7262 18.4787 50.6235 18.8233 50.6235 19.278V20.136L50.5135 20.224H49.1935C48.9735 20.224 48.8195 20.18 48.7315 20.092C48.6435 20.004 48.5995 19.828 48.5995 19.564C48.5995 18.8747 49.0395 18.266 49.9195 17.738C50.3888 17.4447 50.8508 17.2173 51.3055 17.056C51.7748 16.88 52.2662 16.792 52.7795 16.792C53.4248 16.792 54.0262 16.88 54.5835 17.056C55.1408 17.232 55.5882 17.5107 55.9255 17.892C56.2628 18.2733 56.4315 18.7867 56.4315 19.432V25.438C56.6368 25.6727 57.0108 25.79 57.5535 25.79H58.2795L58.3455 25.856V26.076C58.1695 26.3693 57.8982 26.6333 57.5315 26.868C57.1648 27.1027 56.6955 27.22 56.1235 27.22C55.5662 27.22 55.1115 27.0953 54.7595 26.846C54.4222 26.582 54.1802 26.23 54.0335 25.79H53.8795C53.4982 26.2007 53.0435 26.5453 52.5155 26.824C51.9875 27.088 51.4082 27.22 50.7775 27.22ZM50.6895 24.228C50.6895 24.6973 50.8215 25.0493 51.0855 25.284C51.3642 25.504 51.7455 25.614 52.2295 25.614C52.5082 25.614 52.7722 25.5847 53.0215 25.526C53.2855 25.4673 53.5715 25.372 53.8795 25.24V22.006C52.9702 22.182 52.2882 22.38 51.8335 22.6C51.3788 22.8053 51.0708 23.04 50.9095 23.304C50.7628 23.568 50.6895 23.876 50.6895 24.228ZM59.3334 27V26.648L60.7634 25.944V19.3L59.3994 18.31V18.09L62.8754 16.792H63.0954L63.2934 18.42H63.4034C63.9461 17.892 64.4668 17.4887 64.9654 17.21C65.4788 16.9313 66.0581 16.792 66.7034 16.792C67.5834 16.792 68.3021 17.0193 68.8594 17.474C69.4314 17.9287 69.7174 18.5887 69.7174 19.454V25.944L71.1474 26.648V27H65.8674V26.648L67.1654 25.944V20.4C67.1654 19.8427 66.9968 19.4173 66.6594 19.124C66.3221 18.816 65.8821 18.662 65.3394 18.662C65.0021 18.662 64.6428 18.7207 64.2614 18.838C63.8801 18.9553 63.5648 19.1167 63.3154 19.322V25.944L64.6134 26.648V27H59.3334ZM77.3853 27.22C76.4466 27.22 75.6253 27.022 74.9213 26.626C74.2173 26.23 73.6673 25.68 73.2713 24.976C72.89 24.2573 72.6993 23.4213 72.6993 22.468C72.6993 21.3533 72.9266 20.3707 73.3813 19.52C73.836 18.6693 74.4593 18.002 75.2513 17.518C76.058 17.034 76.982 16.792 78.0233 16.792C78.6686 16.792 79.27 16.8947 79.8273 17.1C80.3993 17.2907 80.8246 17.5473 81.1033 17.87C81.338 18.1487 81.4553 18.3687 81.4553 18.53C81.4553 18.7353 81.36 18.9113 81.1693 19.058L80.2233 19.872H80.0693L79.2993 18.838C79.05 18.5007 78.786 18.2367 78.5073 18.046C78.2286 17.8553 77.8693 17.76 77.4293 17.76C76.696 17.76 76.1313 18.09 75.7353 18.75C75.354 19.41 75.1633 20.3047 75.1633 21.434C75.1633 22.094 75.2733 22.71 75.4933 23.282C75.728 23.8393 76.0946 24.294 76.5933 24.646C77.1066 24.9833 77.7813 25.152 78.6173 25.152C79.028 25.152 79.468 25.0933 79.9373 24.976C80.4066 24.8587 80.9053 24.6607 81.4333 24.382H81.4993V24.69C81.1473 25.394 80.612 25.9953 79.8933 26.494C79.1893 26.978 78.3533 27.22 77.3853 27.22ZM83.1166 27V26.648L84.5466 25.944V13.008L83.1826 11.93V11.71L86.8786 10.5H87.0986V18.42H87.1866C87.7293 17.892 88.25 17.4887 88.7486 17.21C89.262 16.9313 89.8413 16.792 90.4866 16.792C91.3666 16.792 92.0853 17.0193 92.6426 17.474C93.2146 17.9287 93.5006 18.5887 93.5006 19.454V25.944L94.9306 26.648V27H89.6506V26.648L90.9486 25.988V20.4C90.9486 19.8427 90.78 19.4173 90.4426 19.124C90.1053 18.816 89.6653 18.662 89.1226 18.662C88.7853 18.662 88.426 18.7207 88.0446 18.838C87.6633 18.9553 87.348 19.1167 87.0986 19.322V25.988L88.3966 26.648V27H83.1166ZM101.256 27.22C99.7898 27.22 98.6238 26.7873 97.7585 25.922C96.9078 25.0567 96.4825 23.9053 96.4825 22.468C96.4825 21.3533 96.7172 20.3707 97.1865 19.52C97.6558 18.6693 98.2718 18.002 99.0345 17.518C99.8118 17.034 100.67 16.792 101.608 16.792C102.782 16.792 103.698 17.1953 104.358 18.002C105.018 18.8087 105.356 19.9453 105.37 21.412L105.282 21.522H98.9465C98.9465 22.182 99.0638 22.7907 99.2985 23.348C99.5332 23.8907 99.9145 24.3307 100.442 24.668C100.97 24.9907 101.667 25.152 102.532 25.152C102.943 25.152 103.383 25.0933 103.852 24.976C104.322 24.8587 104.813 24.6607 105.326 24.382H105.392V24.69C105.04 25.4087 104.505 26.01 103.786 26.494C103.068 26.978 102.224 27.22 101.256 27.22ZM101.168 17.782C100.582 17.782 100.098 18.024 99.7165 18.508C99.3352 18.992 99.0932 19.6667 98.9905 20.532H103.236C103.104 19.52 102.862 18.8087 102.51 18.398C102.158 17.9873 101.711 17.782 101.168 17.782ZM107.663 27V26.582L112.481 18.024H109.137L108.015 20.356H107.641L107.883 16.792H107.993C108.184 16.8507 108.418 16.902 108.697 16.946C108.99 16.99 109.254 17.012 109.489 17.012H115.649V17.452L110.831 25.988H114.505L115.451 23.524H115.825V27H107.663ZM122.34 27.22C121.006 27.22 119.928 26.89 119.106 26.23C118.285 25.5553 117.874 24.6387 117.874 23.48C117.874 22.7173 118.116 21.9913 118.6 21.302C119.099 20.598 119.876 19.9527 120.932 19.366C120.478 18.882 120.118 18.4567 119.854 18.09C119.605 17.7233 119.422 17.3713 119.304 17.034C119.187 16.682 119.128 16.286 119.128 15.846C119.128 15.2153 119.319 14.6287 119.7 14.086C120.082 13.5287 120.602 13.0887 121.262 12.766C121.922 12.4287 122.67 12.26 123.506 12.26C124.738 12.26 125.706 12.5313 126.41 13.074C127.129 13.6167 127.488 14.3207 127.488 15.186C127.488 15.8313 127.195 16.418 126.608 16.946C126.036 17.474 125.127 18.024 123.88 18.596C123.998 18.728 124.122 18.86 124.254 18.992C124.386 19.1093 124.518 19.2413 124.65 19.388L128.016 22.754C128.764 21.6393 129.446 20.1947 130.062 18.42L127.906 17.562V17.21H133.252V17.562L131.36 18.376C130.92 19.344 130.473 20.2533 130.018 21.104C129.578 21.94 129.116 22.6953 128.632 23.37L131.096 25.856L132.922 26.648V27H128.522L126.916 25.394C126.271 25.9807 125.574 26.4353 124.826 26.758C124.078 27.066 123.25 27.22 122.34 27.22ZM121.658 15.12C121.658 15.6187 121.79 16.0807 122.054 16.506C122.333 16.9313 122.751 17.4373 123.308 18.024C123.822 17.5987 124.225 17.1587 124.518 16.704C124.812 16.2347 124.958 15.7067 124.958 15.12C124.958 14.592 124.812 14.152 124.518 13.8C124.225 13.4333 123.822 13.25 123.308 13.25C122.795 13.25 122.392 13.426 122.098 13.778C121.805 14.1153 121.658 14.5627 121.658 15.12ZM120.448 22.732C120.448 23.6707 120.72 24.404 121.262 24.932C121.82 25.4453 122.538 25.702 123.418 25.702C124.43 25.702 125.369 25.372 126.234 24.712L122.824 21.28C122.59 21.0453 122.362 20.818 122.142 20.598C121.922 20.378 121.724 20.18 121.548 20.004C121.094 20.4293 120.793 20.8547 120.646 21.28C120.514 21.6907 120.448 22.1747 120.448 22.732ZM134.491 27V26.648L136.317 25.746V13.756L134.513 12.832V12.48H138.297L146.789 22.512V13.69L144.413 12.832V12.48H150.133V12.832L148.329 13.712V27.11H147.185L137.857 16.154V25.768L140.255 26.648V27H134.491ZM156.065 27.22C155.199 27.22 154.481 27 153.909 26.56C153.351 26.1053 153.073 25.438 153.073 24.558V18.068L151.643 17.364V17.012H155.625V23.612C155.625 24.184 155.793 24.6167 156.131 24.91C156.468 25.2033 156.908 25.35 157.451 25.35C157.773 25.35 158.118 25.2913 158.485 25.174C158.866 25.0567 159.181 24.8953 159.431 24.69V18.068L158.001 17.364V17.012H161.983V25.988L163.435 26.648V27H159.431V25.614H159.343C158.8 26.142 158.279 26.5453 157.781 26.824C157.282 27.088 156.71 27.22 156.065 27.22ZM164.757 27V26.648L166.187 25.944V19.3L164.823 18.31V18.09L168.299 16.792H168.519L168.717 18.42H168.827C169.37 17.892 169.891 17.4887 170.389 17.21C170.903 16.9313 171.482 16.792 172.127 16.792C173.007 16.792 173.726 17.0193 174.283 17.474C174.855 17.9287 175.141 18.5887 175.141 19.454V25.944L176.571 26.648V27H171.291V26.648L172.589 25.944V20.4C172.589 19.8427 172.421 19.4173 172.083 19.124C171.746 18.816 171.306 18.662 170.763 18.662C170.426 18.662 170.067 18.7207 169.685 18.838C169.304 18.9553 168.989 19.1167 168.739 19.322V25.944L170.037 26.648V27H164.757ZM182.897 27.22C181.43 27.22 180.264 26.7873 179.399 25.922C178.548 25.0567 178.123 23.9053 178.123 22.468C178.123 21.3533 178.358 20.3707 178.827 19.52C179.296 18.6693 179.912 18.002 180.675 17.518C181.452 17.034 182.31 16.792 183.249 16.792C184.422 16.792 185.339 17.1953 185.999 18.002C186.659 18.8087 186.996 19.9453 187.011 21.412L186.923 21.522H180.587C180.587 22.182 180.704 22.7907 180.939 23.348C181.174 23.8907 181.555 24.3307 182.083 24.668C182.611 24.9907 183.308 25.152 184.173 25.152C184.584 25.152 185.024 25.0933 185.493 24.976C185.962 24.8587 186.454 24.6607 186.967 24.382H187.033V24.69C186.681 25.4087 186.146 26.01 185.427 26.494C184.708 26.978 183.865 27.22 182.897 27.22ZM182.809 17.782C182.222 17.782 181.738 18.024 181.357 18.508C180.976 18.992 180.734 19.6667 180.631 20.532H184.877C184.745 19.52 184.503 18.8087 184.151 18.398C183.799 17.9873 183.352 17.782 182.809 17.782ZM192.626 27.22C191.907 27.22 191.291 27.154 190.778 27.022C190.264 26.89 189.751 26.6993 189.238 26.45V23.92H189.546L190.294 25.108C190.807 25.9147 191.555 26.318 192.538 26.318C193.11 26.318 193.55 26.2007 193.858 25.966C194.166 25.7167 194.32 25.3793 194.32 24.954C194.32 24.5873 194.232 24.3013 194.056 24.096C193.88 23.876 193.601 23.678 193.22 23.502C192.853 23.326 192.384 23.1133 191.812 22.864C191.02 22.5267 190.426 22.1453 190.03 21.72C189.634 21.28 189.436 20.7153 189.436 20.026C189.436 19.4247 189.59 18.882 189.898 18.398C190.22 17.8993 190.646 17.5107 191.174 17.232C191.716 16.9387 192.303 16.792 192.934 16.792C193.447 16.792 193.938 16.8507 194.408 16.968C194.877 17.0853 195.346 17.2613 195.816 17.496V20.026H195.486L194.782 18.948C194.268 18.1413 193.652 17.738 192.934 17.738C192.479 17.738 192.105 17.8553 191.812 18.09C191.533 18.31 191.394 18.6327 191.394 19.058C191.394 19.4833 191.548 19.8207 191.856 20.07C192.178 20.3193 192.75 20.6127 193.572 20.95C193.982 21.1407 194.393 21.3387 194.804 21.544C195.214 21.7493 195.552 22.0427 195.816 22.424C196.094 22.8053 196.234 23.3407 196.234 24.03C196.234 24.7047 196.05 25.284 195.684 25.768C195.332 26.2373 194.877 26.5967 194.32 26.846C193.762 27.0953 193.198 27.22 192.626 27.22Z" fill="white"/>
</svg>
